<?xml version="1.0" standalone="no"?>
<!DOCTYPE svg PUBLIC "-//W3C//DTD SVG 20010904//EN"
 "http://www.w3.org/TR/2001/REC-SVG-20010904/DTD/svg10.dtd">
<svg version="1.0" xmlns="http://www.w3.org/2000/svg"
 width="256.000000pt" height="256.000000pt" viewBox="0 0 256.000000 256.000000"
 preserveAspectRatio="xMidYMid meet">

<g transform="translate(0.000000,256.000000) scale(0.100000,-0.100000)"
fill="#000000" stroke="none">
<path d="M0 1280 l0 -1280 1280 0 1280 0 0 1280 0 1280 -1280 0 -1280 0 0
-1280z m1372 634 l78 -46 -2 -196 c-1 -109 -4 -164 -5 -123 -4 76 -10 87 -58
116 -13 8 -19 29 -23 83 -5 72 -5 73 -41 91 -35 18 -36 18 -77 -2 -39 -18 -46
-19 -80 -6 -20 8 -37 18 -38 24 -1 9 141 103 158 104 5 1 45 -20 88 -45z m158
-529 c7 -9 5 -16 -5 -25 -8 -7 -15 -9 -15 -5 0 4 -12 0 -26 -10 -14 -9 -28
-14 -31 -12 -2 3 6 11 19 18 12 6 26 17 30 23 4 6 9 112 10 236 l3 225 2 -219
c2 -126 8 -225 13 -231z m138 363 c21 -11 22 -16 20 -112 l-2 -101 -3 96 -4
95 -55 32 c-31 18 -60 32 -64 32 -5 0 -11 -17 -13 -37 -3 -31 -4 -28 -5 15
l-2 52 53 -30 c28 -17 62 -36 75 -42z m-567 26 l59 -36 -27 -32 -28 -33 -37
19 c-35 17 -38 22 -38 59 0 22 -4 39 -8 37 -5 -1 -34 -16 -64 -33 l-56 -29
-10 -66 -9 -65 -2 66 -1 65 73 42 c39 23 76 42 81 42 4 0 35 -16 67 -36z m94
-174 c3 -5 1 -10 -4 -10 -6 0 -11 5 -11 10 0 6 2 10 4 10 3 0 8 -4 11 -10z
m201 -43 c-10 -7 -38 -24 -63 -37 l-46 -24 -64 34 c-35 19 -59 36 -54 38 6 2
35 -10 64 -27 l53 -30 59 34 c57 32 89 39 51 12z m-201 -37 c3 -5 1 -10 -4
-10 -6 0 -11 5 -11 10 0 6 2 10 4 10 3 0 8 -4 11 -10z m526 -27 c13 -16 12
-17 -3 -4 -10 7 -18 15 -18 17 0 8 8 3 21 -13z m-605 -16 c-57 -35 -56 -31
-58 -254 -2 -233 -6 -208 -10 60 -3 155 -1 177 13 177 8 0 24 7 35 15 10 8 24
14 29 14 6 0 1 -6 -9 -12z m117 -17 l52 -29 53 30 c30 17 58 29 63 27 12 -4
-98 -68 -116 -68 -12 0 -110 52 -124 66 -16 15 28 -1 72 -26z m537 -15 c13
-14 21 -25 18 -25 -2 0 -15 11 -28 25 -13 14 -21 25 -18 25 2 0 15 -11 28 -25z
m-568 -87 c2 -46 3 -85 2 -87 -2 -2 -10 -1 -19 3 -13 5 -14 10 -4 27 6 13 9
47 7 80 -2 33 -1 59 3 59 4 0 9 -37 11 -82z m185 -12 c1 -52 4 -104 8 -116 5
-17 3 -21 -10 -18 -9 1 -16 6 -16 11 1 4 1 54 1 112 0 58 3 105 8 105 4 0 8
-42 9 -94z m-260 -58 c-2 -18 -4 -6 -4 27 0 33 2 48 4 33 2 -15 2 -42 0 -60z
m45 -147 c19 -15 28 -18 31 -9 3 7 6 -10 6 -39 1 -48 3 -53 37 -74 31 -19 41
-21 65 -12 16 6 29 7 29 3 0 -17 42 -49 56 -43 32 12 10 -7 -46 -41 l-61 -36
-84 48 -85 47 0 61 c0 82 12 166 19 137 3 -12 18 -31 33 -42z m510 -23 c-6 -6
-7 0 -4 19 5 21 7 23 10 9 2 -10 0 -22 -6 -28z m-789 12 c3 -11 1 -18 -4 -14
-5 3 -9 12 -9 20 0 20 7 17 13 -6z m645 -33 c3 -52 4 -52 35 -36 21 10 21 10
3 -5 -26 -21 -30 -20 -86 10 l-48 26 32 29 c44 40 60 34 64 -24z m122 8 c0 -2
-13 -11 -30 -20 -38 -19 -40 -11 -2 9 31 17 32 18 32 11z m110 -330 c0 -22 4
-24 58 -27 l57 -3 3 -49 c2 -36 0 -47 -10 -44 -7 3 -14 19 -16 36 -3 31 -5 32
-48 32 -42 0 -44 -1 -44 -30 0 -20 -5 -30 -15 -30 -12 0 -15 14 -15 70 0 56 3
70 15 70 9 0 15 -9 15 -25z m-930 6 c0 -5 -7 -11 -15 -15 -9 -3 -15 0 -15 9 0
8 7 15 15 15 8 0 15 -4 15 -9z m550 -6 c0 -10 -11 -15 -35 -15 -34 0 -35 -1
-35 -42 0 -24 -5 -50 -10 -58 -15 -23 -30 5 -30 58 0 41 -1 42 -35 42 -24 0
-35 5 -35 15 0 12 17 15 90 15 73 0 90 -3 90 -15z m150 -40 c7 -8 10 -25 6
-40 -6 -23 -11 -25 -61 -25 -29 0 -57 -4 -60 -10 -3 -5 -10 -10 -16 -10 -10 0
-13 83 -2 93 13 14 120 7 133 -8z m170 0 c0 -11 -12 -15 -49 -15 -51 0 -61 -9
-61 -51 0 -23 -15 -25 -24 -3 -10 25 -7 59 6 72 7 7 38 12 70 12 45 0 58 -3
58 -15z m730 -581 c11 -12 10 -18 -3 -32 -16 -15 -18 -15 -34 0 -13 14 -14 20
-3 32 16 20 24 20 40 0z"/>
<path d="M1430 711 c0 -10 58 -23 71 -15 21 13 6 24 -31 24 -22 0 -40 -4 -40
-9z"/>
</g>
</svg>
